<svg width="96" height="96" viewBox="0 0 96 96" fill="none" xmlns="http://www.w3.org/2000/svg">
<circle cx="48" cy="48" r="48" fill="#414247"/>
<path fill-rule="evenodd" clip-rule="evenodd" d="M25 40.0625C25 38.5707 25.5926 37.1399 26.6475 36.085C27.7024 35.0301 29.1332 34.4375 30.625 34.4375H51.7188C53.0831 34.4373 54.401 34.933 55.427 35.8323C56.453 36.7316 57.1172 37.9731 57.2959 39.3256L66.0428 35.4387C66.471 35.248 66.94 35.1672 67.4073 35.2039C67.8745 35.2405 68.3253 35.3933 68.7185 35.6485C69.1116 35.9036 69.4348 36.253 69.6586 36.6648C69.8825 37.0766 69.9998 37.5378 70 38.0066V58.9934C69.9996 59.4618 69.8822 59.9226 69.6586 60.3341C69.4349 60.7456 69.112 61.0947 68.7192 61.3498C68.3264 61.6049 67.8761 61.7578 67.4092 61.7947C66.9424 61.8317 66.4736 61.7514 66.0456 61.5613L57.2959 57.6744C57.1172 59.0269 56.453 60.2684 55.427 61.1677C54.401 62.067 53.0831 62.5627 51.7188 62.5625H30.625C29.1332 62.5625 27.7024 61.9699 26.6475 60.915C25.5926 59.8601 25 58.4293 25 56.9375V40.0625Z" fill="#35A9EA"/>
</svg>
