<svg width="96" height="96" viewBox="0 0 96 96" fill="none" xmlns="http://www.w3.org/2000/svg">
<circle cx="48" cy="48" r="48" fill="white" fill-opacity="0.13"/>
<path fill-rule="evenodd" clip-rule="evenodd" d="M25 39.0625C25 37.5707 25.5926 36.1399 26.6475 35.085C27.7024 34.0301 29.1332 33.4375 30.625 33.4375H51.7188C53.0831 33.4373 54.401 33.933 55.427 34.8323C56.453 35.7316 57.1172 36.9731 57.2959 38.3256L66.0428 34.4387C66.471 34.248 66.94 34.1672 67.4073 34.2039C67.8745 34.2405 68.3253 34.3933 68.7185 34.6485C69.1116 34.9036 69.4348 35.253 69.6586 35.6648C69.8825 36.0766 69.9998 36.5378 70 37.0066V57.9934C69.9996 58.4618 69.8822 58.9226 69.6586 59.3341C69.4349 59.7456 69.112 60.0947 68.7192 60.3498C68.3264 60.6049 67.8761 60.7578 67.4092 60.7947C66.9424 60.8317 66.4736 60.7514 66.0456 60.5613L57.2959 56.6744C57.1172 58.0269 56.453 59.2684 55.427 60.1677C54.401 61.067 53.0831 61.5627 51.7188 61.5625H30.625C29.1332 61.5625 27.7024 60.9699 26.6475 59.915C25.5926 58.8601 25 57.4293 25 55.9375V39.0625Z" fill="#35A9EA"/>
<g clip-path="url(#clip0_0_645)">
<path d="M50 30.5718C46.9219 27.925 42.4594 27.5312 38.3969 27.9375C33.6656 28.4156 28.8906 30.0375 25.9156 31.3906C25.6427 31.5147 25.4112 31.7148 25.2488 31.9669C25.0865 32.2191 25.0001 32.5126 25 32.8125V67.1875C25.0001 67.4489 25.0657 67.7061 25.191 67.9356C25.3162 68.1651 25.4971 68.3595 25.7169 68.5009C25.9367 68.6424 26.1886 68.7265 26.4493 68.7454C26.7101 68.7644 26.9714 68.7176 27.2094 68.6093C29.9656 67.3593 34.4062 65.8562 38.7094 65.4218C43.1125 64.9781 46.8031 65.6937 48.7812 68.1625C48.9277 68.345 49.1132 68.4922 49.3241 68.5934C49.5351 68.6946 49.766 68.7472 50 68.7472C50.234 68.7472 50.4649 68.6946 50.6759 68.5934C50.8868 68.4922 51.0723 68.345 51.2188 68.1625C53.1969 65.6937 56.8875 64.9781 61.2875 65.4218C65.5938 65.8562 70.0375 67.3593 72.7906 68.6093C73.0286 68.7176 73.2899 68.7644 73.5507 68.7454C73.8114 68.7265 74.0632 68.6424 74.2831 68.5009C74.5029 68.3595 74.6838 68.1651 74.809 67.9356C74.9343 67.7061 74.9999 67.4489 75 67.1875V32.8125C74.9999 32.5126 74.9135 32.2191 74.7512 31.9669C74.5888 31.7148 74.3573 31.5147 74.0844 31.3906C71.1094 30.0375 66.3344 28.4156 61.6031 27.9375C57.5406 27.5281 53.0781 27.925 50 30.5718Z" fill="#FF4434"/>
</g>
<defs>
<clipPath id="clip0_0_645">
<rect width="50" height="50" fill="white" transform="translate(25 25)"/>
</clipPath>
</defs>
</svg>
