<svg xmlns="http://www.w3.org/2000/svg" width="683.375" height="941.39" viewBox="682.625 -0.003 683.375 941.39"><path d="M1366-.003v941.39H698.2c-31.09-55.55-6.03-112.95-6.03-112.95 23.16-53 57.75-79.02 57.75-79.02 2.88-2.21 6.12-4.43 9.62-6.66 34.25-21.75 93.7-43.26 93.7-43.26 62.19-26.23 84.5-77.85 84.5-77.85 32.89-54.58 15.33-97.73 15.33-97.73l-217.85-294.05c-1.69-26.01 12.36-41.88 28.54-51.47 20.41-12.11 44.22-14.27 44.22-14.27 29.19-8.19 148.65-.27 148.65-.27 104.23 5.93 123.35-87.58 123.35-87.58 10.15-46.54 40.61-76.28 40.61-76.28H1366Z" fill="#293047" fill-rule="evenodd" data-name="Path 19"/></svg>