<svg width="300" height="198" viewBox="0 0 300 198" fill="none" xmlns="http://www.w3.org/2000/svg">
<path d="M50.7857 120.427H42.1438V98.967H36.2568V91.98H42.1436V87.0082C42.1436 81.1166 44.7473 76.8912 53.3658 76.8912C55.1886 76.8912 58.0503 77.2572 58.0503 77.2572V83.7451H55.0446C51.9819 83.7451 50.7861 84.6731 50.7861 87.2387V91.98H57.9356L57.299 98.967H50.7859L50.7857 120.427ZM70.6146 91.4216C70.4887 91.4216 70.3591 91.4262 70.2309 91.4294C62.2177 91.4294 58.5514 97.4338 58.5514 105.957C58.5514 116.694 63.3071 120.992 70.2935 120.992C74.2907 120.992 76.9169 119.316 78.5132 116.188V120.43H86.7328V91.9829H78.5132V96.3578C77.2098 93.5431 74.5102 91.455 70.6146 91.4216ZM72.7046 98.1436C76.0702 98.1436 78.0902 100.482 78.0902 104.46L78.098 108.523C78.098 111.204 76.4296 114.34 72.7046 114.34C66.9779 114.34 67.1309 108.18 67.1309 106.129C67.1309 99.2277 70.1821 98.1436 72.7046 98.1436ZM90.0523 106.208C90.0523 102.751 89.8862 91.4401 104.68 91.4401C110.618 91.4401 113.098 93.321 113.098 93.321L111.105 99.4788C111.105 99.4788 108.628 98.1203 105.401 98.1203C101.268 98.1203 98.6313 100.507 98.6313 104.706L98.6359 107.718C98.6359 111.753 101.18 114.446 105.41 114.446C108.35 114.446 111.059 113.075 111.059 113.075L113.047 119.104C113.047 119.104 110.78 120.997 104.721 120.997C90.6355 120.997 90.0525 110.849 90.0525 106.208H90.0523ZM161.292 91.4294C169.306 91.4294 173.03 97.4338 173.03 105.957C173.03 116.694 168.274 120.992 161.288 120.992C157.29 120.992 154.336 119.316 152.739 116.188V120.43L144.623 120.427V77.7562L153.24 77.0075V95.9723C154.484 92.6544 158.571 91.4294 161.293 91.4294H161.292ZM158.877 98.1436C155.511 98.1436 153.24 100.482 153.24 104.46L153.232 108.523C153.227 111.204 154.805 114.34 158.877 114.34C164.603 114.34 164.45 108.18 164.45 106.129C164.45 99.2277 161.399 98.1436 158.877 98.1436ZM128.049 91.4529C118.961 91.4529 114.162 96.3893 114.162 105.162V106.792C114.162 118.177 120.901 121.109 128.934 121.109C136.742 121.109 140.277 118.933 140.277 118.933L138.664 113.139C138.664 113.139 134.507 114.902 129.967 114.902C125.261 114.902 123.237 113.707 122.718 109.201H140.966V104.553C140.966 95.0375 135.581 91.4527 128.049 91.4527L128.049 91.4529ZM128.269 97.2545C131.415 97.2545 133.453 99.1763 133.341 103.633H122.734C122.918 98.9423 125.117 97.2547 128.269 97.2547V97.2545ZM190.212 91.4139C180.879 91.4139 175.965 96.6534 175.965 106.043C175.965 118.926 184.435 121 190.228 121C198.708 121 204.35 116.452 204.35 106.16C204.35 95.448 198.006 91.4139 190.212 91.4139ZM190.095 98.1669C194.199 98.1669 195.825 101.227 195.825 104.71V107.704C195.825 111.923 193.55 114.364 190.079 114.364C186.834 114.364 184.553 112.081 184.553 107.704V104.71C184.553 100.042 187.267 98.1669 190.095 98.1669ZM221.517 91.4139C212.184 91.4139 207.27 96.6534 207.27 106.043C207.27 118.926 215.74 121 221.533 121C230.013 121 235.655 116.452 235.655 106.16C235.655 95.448 229.311 91.4139 221.517 91.4139ZM221.4 98.1669C225.504 98.1669 227.13 101.227 227.13 104.71V107.704C227.13 111.923 224.854 114.364 221.384 114.364C218.139 114.364 215.858 112.081 215.858 107.704V104.71C215.858 100.042 218.572 98.1669 221.4 98.1669ZM238.911 120.427V77.7562L247.554 77.0078V105.609L256.128 91.9802H265.255L256.31 106.095L265.599 120.427H256.446L247.554 106.511V120.427H238.911Z" fill="#1877F2"/>
</svg>
