<svg width="254" height="168" viewBox="0 0 254 168" fill="none" xmlns="http://www.w3.org/2000/svg">
<path d="M116.007 85.6751C116.007 94.8555 108.813 101.62 99.9841 101.62C91.1553 101.62 83.9612 94.8555 83.9612 85.6751C83.9612 76.43 91.1553 69.7297 99.9841 69.7297C108.813 69.7297 116.007 76.43 116.007 85.6751ZM108.993 85.6751C108.993 79.9382 104.823 76.013 99.9841 76.013C95.1448 76.013 90.9753 79.9382 90.9753 85.6751C90.9753 91.3545 95.1448 95.3372 99.9841 95.3372C104.823 95.3372 108.993 91.3473 108.993 85.6751Z" fill="#EA4335"/>
<path d="M150.573 85.6751C150.573 94.8555 143.379 101.62 134.55 101.62C125.722 101.62 118.527 94.8555 118.527 85.6751C118.527 76.4371 125.722 69.7297 134.55 69.7297C143.379 69.7297 150.573 76.43 150.573 85.6751ZM143.559 85.6751C143.559 79.9382 139.39 76.013 134.55 76.013C129.711 76.013 125.542 79.9382 125.542 85.6751C125.542 91.3545 129.711 95.3372 134.55 95.3372C139.39 95.3372 143.559 91.3473 143.559 85.6751Z" fill="#FBBC05"/>
<path d="M183.699 70.6931V99.32C183.699 111.096 176.743 115.905 168.519 115.905C160.778 115.905 156.118 110.736 154.361 106.509L160.468 103.971C161.555 106.567 164.22 109.629 168.512 109.629C173.776 109.629 177.038 106.387 177.038 100.283V97.99H176.793C175.223 99.9239 172.199 101.613 168.382 101.613C160.396 101.613 153.079 94.6686 153.079 85.7326C153.079 76.7319 160.396 69.7297 168.382 69.7297C172.192 69.7297 175.216 71.4192 176.793 73.2955H177.038V70.7003H183.699V70.6931ZM177.535 85.7326C177.535 80.118 173.783 76.013 169.009 76.013C164.169 76.013 160.115 80.118 160.115 85.7326C160.115 91.2898 164.169 95.3372 169.009 95.3372C173.783 95.3372 177.535 91.2898 177.535 85.7326Z" fill="#4285F4"/>
<path d="M194.681 53.9137V100.643H187.84V53.9137H194.681Z" fill="#34A853"/>
<path d="M221.341 90.923L226.785 94.5463C225.028 97.1415 220.793 101.613 213.477 101.613C204.403 101.613 197.627 94.611 197.627 85.6678C197.627 76.1854 204.461 69.7224 212.692 69.7224C220.98 69.7224 225.035 76.3076 226.36 79.8662L227.087 81.6778L205.735 90.506C207.37 93.7052 209.912 95.3371 213.477 95.3371C217.049 95.3371 219.526 93.5829 221.341 90.923ZM204.583 85.1861L218.856 79.2695C218.071 77.2781 215.709 75.8906 212.929 75.8906C209.365 75.8906 204.403 79.0323 204.583 85.1861Z" fill="#EA4335"/>
<path d="M58.0649 81.5269V74.762H80.9002C81.1235 75.941 81.2387 77.3357 81.2387 78.8454C81.2387 83.9209 79.8489 90.1969 75.3696 94.6685C71.0128 99.1977 65.4462 101.613 58.0721 101.613C44.404 101.613 32.9106 90.4989 32.9106 76.854C32.9106 63.2092 44.404 52.0948 58.0721 52.0948C65.6334 52.0948 71.02 55.0567 75.0672 58.9173L70.2855 63.6908C67.3834 60.9734 63.4514 58.8598 58.0649 58.8598C48.0838 58.8598 40.2776 66.89 40.2776 76.854C40.2776 86.8181 48.0838 94.8483 58.0649 94.8483C64.5388 94.8483 68.2259 92.253 70.588 89.895C72.5035 87.9827 73.7637 85.2509 74.2606 81.5197L58.0649 81.5269Z" fill="#4285F4"/>
</svg>
