<svg width="270" height="179" viewBox="0 0 270 179" fill="none" xmlns="http://www.w3.org/2000/svg">
<path fill-rule="evenodd" clip-rule="evenodd" d="M228.742 110.554H234.665L244.913 84.5687H239.05L234.814 97.51L230.352 84.5684H223.809L231.6 103.338L228.742 110.554ZM199.346 90.7371V104.057H193.371V84.5687H197.569L198.818 86.2711C200.443 84.9097 202.183 84.114 204.187 84.114C206.873 84.114 208.915 84.9093 210.162 86.8779C211.978 85.2118 213.907 84.114 216.365 84.114C220.979 84.114 223.664 86.4989 223.664 92.9697V104.057H217.689V93.6512C217.689 90.6616 216.478 89.7909 214.549 89.7909C213.415 89.7909 212.47 90.093 211.411 90.7744C211.487 91.4559 211.525 92.1744 211.525 92.9697V104.057H205.549V93.6512C205.549 90.6616 204.338 89.7909 202.372 89.7909C201.275 89.7909 200.368 90.056 199.346 90.7371ZM178.506 92.4021H186.184C185.768 89.8674 184.406 88.6557 182.365 88.6557C180.624 88.6557 178.961 89.6774 178.506 92.4021ZM182.781 104.436C177.032 104.436 172.418 101.598 172.418 94.1045C172.418 87.1035 176.881 84.077 182.024 84.077C188.226 84.077 190.987 88.428 190.987 95.2777H178.469C178.885 98.6455 180.965 99.6302 183.726 99.6302C186.396 99.6302 188.485 98.9706 190.101 97.8825L189.29 102.625C187.748 103.818 185.896 104.436 182.781 104.436ZM160.531 99.4031C161.892 99.4031 162.913 99.1754 163.972 98.3811V89.9051C163.027 89.3364 162.082 89.0724 160.721 89.0724C157.808 89.0724 156.144 91.0399 156.144 94.3315C156.144 97.5492 157.846 99.4031 160.531 99.4031ZM165.145 102.62C163.594 103.793 161.817 104.511 159.283 104.511C153.95 104.511 150.094 101.219 150.094 94.4454C150.094 87.7095 154.518 84.077 160.191 84.077C161.514 84.077 162.801 84.2663 163.972 84.72V76.448H169.948V104.057H166.166L165.145 102.62ZM124.775 92.5153V78.0721H130.977V92.4018C130.977 97.5484 133.284 98.6078 136.461 98.6078C139.903 98.6078 141.68 97.0937 141.68 92.4018V78.0721H147.92V92.5153C147.92 101.03 144.214 104.587 136.159 104.587C128.67 104.587 124.775 101.522 124.775 92.5153Z" fill="white"/>
<path fill-rule="evenodd" clip-rule="evenodd" d="M108.969 93.5979C108.725 93.3983 108.436 93.2623 108.127 93.202C106.308 95.0162 104.088 96.9273 102.117 98.2115C101.207 98.8164 100.063 99.1186 99.3059 99.1186C97.5626 99.1186 96.8051 97.4553 96.5775 94.8114C96.2745 91.2604 96.0698 87.0068 96.0698 80.4325C96.0698 73.6898 94.5405 69.106 90.4665 68.746C90.2911 68.7297 90.115 68.721 89.9388 68.7202C87.438 68.7202 86.2253 70.0044 84.6338 73.2544C83.27 76.0495 81.1479 80.13 77.2078 87.8373C73.7973 94.487 70.0084 100.381 66.7494 104.461C65.8418 105.593 65.1245 106.37 64.4503 106.811C63.9998 107.108 63.5672 107.257 63.1123 107.257C61.826 107.257 60.8868 106.171 60.5731 103.641C60.4988 103.04 60.4593 102.358 60.4593 101.59C60.4593 96.3762 62.4302 87.9127 65.8396 75.445C68.3405 66.3773 67.28 60.1824 61.8231 60.1824H61.7621L61.7581 60.1835C60.5225 60.1978 59.4982 60.6454 58.5113 61.4228C57.5395 62.188 56.567 63.8418 55.6594 66.0648C54.6362 68.5689 48.4144 81.0572 38.5116 87.4906C38.395 89.937 39.7789 92.3819 42.5827 92.647C45.1352 92.8888 46.9475 91.8125 49.281 90.2438C48.9681 91.6399 48.6598 93.0371 48.3562 94.4353C48.1785 95.2518 48.0654 95.777 48.032 95.9225C47.724 97.3238 47.4884 98.7401 47.3262 100.166C45.9297 112.655 51.715 118.818 58.4898 118.818C59.6221 118.818 60.7436 118.683 61.8579 118.399C69.3223 116.506 76.5081 107.938 85.0136 88.2152C84.8847 90.3605 84.8715 92.3643 84.9641 94.224C85.5245 105.528 89.9926 108.919 96.3053 108.919C101.079 108.919 105.55 106.426 107.824 103.327C109.492 101.136 110.173 98.7177 110.173 96.8288C110.173 95.3628 109.709 94.1921 108.97 93.5979" fill="#EA5252"/>
</svg>
