<svg width="58" height="58" viewBox="0 0 58 58" fill="none" xmlns="http://www.w3.org/2000/svg">
<rect width="58" height="58" rx="10" fill="#FC5B11"/>
<path d="M35.2492 19.479C33.9269 18.2977 32.3075 17.4993 30.5653 17.1698C28.823 16.8403 27.0239 16.9922 25.3615 17.609C23.6991 18.2259 22.2364 19.2844 21.1308 20.6707C20.0252 22.0569 19.3186 23.7184 19.087 25.4764C18.879 27.0178 19.0453 28.5866 19.572 30.0501C20.0987 31.5136 20.9702 32.8287 22.1127 33.8841C22.8193 34.5037 23.3894 35.2633 23.787 36.1148C24.1846 36.9663 24.401 37.8911 24.4224 38.8306V39.005C24.4236 40.0649 24.8451 41.081 25.5945 41.8304C26.3439 42.5798 27.3601 43.0014 28.4199 43.0025H29.0916C30.1514 43.0014 31.1675 42.5798 31.917 41.8304C32.6664 41.081 33.0879 40.0649 33.0891 39.005V38.4103C33.1053 37.5799 33.3007 36.7627 33.6619 36.0148C34.0232 35.2669 34.5417 34.6059 35.1821 34.0769C36.2205 33.1674 37.0539 32.0476 37.6269 30.7917C38.1999 29.5358 38.4995 28.1725 38.5059 26.792C38.5123 25.4116 38.2252 24.0456 37.6638 22.7844C37.1023 21.5233 36.2793 20.3959 35.2492 19.4769V19.479ZM29.0916 40.8359H28.4199C27.9345 40.8353 27.4692 40.6422 27.1259 40.299C26.7827 39.9558 26.5896 39.4904 26.5891 39.005C26.5891 39.005 26.5815 38.7234 26.5804 38.6692H30.9224V39.005C30.9218 39.4904 30.7288 39.9558 30.3855 40.299C30.0423 40.6422 29.577 40.8353 29.0916 40.8359ZM33.7499 32.4498C32.5165 33.5196 31.6257 34.9293 31.1889 36.5025H29.8391V28.7199C30.4706 28.4966 31.0176 28.0837 31.4055 27.5376C31.7933 26.9915 32.003 26.339 32.0057 25.6692C32.0057 25.3819 31.8916 25.1063 31.6884 24.9032C31.4853 24.7 31.2097 24.5859 30.9224 24.5859C30.6351 24.5859 30.3595 24.7 30.1564 24.9032C29.9532 25.1063 29.8391 25.3819 29.8391 25.6692C29.8391 25.9565 29.7249 26.2321 29.5218 26.4352C29.3186 26.6384 29.0431 26.7525 28.7557 26.7525C28.4684 26.7525 28.1929 26.6384 27.9897 26.4352C27.7865 26.2321 27.6724 25.9565 27.6724 25.6692C27.6724 25.3819 27.5583 25.1063 27.3551 24.9032C27.1519 24.7 26.8764 24.5859 26.5891 24.5859C26.3018 24.5859 26.0262 24.7 25.823 24.9032C25.6199 25.1063 25.5057 25.3819 25.5057 25.6692C25.5085 26.339 25.7182 26.9915 26.106 27.5376C26.4938 28.0837 27.0409 28.4966 27.6724 28.7199V36.5025H26.2402C25.7516 34.8875 24.8353 33.4347 23.5882 32.2981C22.5298 31.3118 21.7755 30.0434 21.4145 28.6424C21.0535 27.2414 21.1007 25.7664 21.5507 24.3914C22.0007 23.0164 22.8346 21.7988 23.954 20.8823C25.0735 19.9658 26.4317 19.3887 27.8685 19.219C28.1663 19.1858 28.4658 19.1691 28.7655 19.1692C30.6262 19.1637 32.4225 19.8502 33.8052 21.0954C34.6065 21.8099 35.2468 22.6867 35.6836 23.6674C36.1204 24.6482 36.3438 25.7106 36.3388 26.7843C36.3339 27.8579 36.1009 28.9183 35.6551 29.895C35.2093 30.8717 34.561 31.7426 33.7532 32.4498H33.7499Z" fill="#0D0D0D"/>
</svg>
