<svg width="58" height="58" viewBox="0 0 58 58" fill="none" xmlns="http://www.w3.org/2000/svg">
<rect width="58" height="58" rx="10" fill="#525BF1"/>
<g clip-path="url(#clip0_4_106)">
<path d="M31.9999 33.6256C31.9999 32.4984 31.5522 31.4174 30.7551 30.6204C29.9581 29.8234 28.8771 29.3756 27.7499 29.3756C26.6228 29.3756 25.5418 29.8234 24.7447 30.6204C23.9477 31.4174 23.4999 32.4984 23.4999 33.6256V34.0006H26.4999V33.6256C26.4999 33.2941 26.6316 32.9761 26.8661 32.7417C27.1005 32.5073 27.4184 32.3756 27.7499 32.3756C28.0815 32.3756 28.3994 32.5073 28.6338 32.7417C28.8682 32.9761 28.9999 33.2941 28.9999 33.6256C28.9999 34.2506 27.8079 35.1446 26.8499 35.8626C25.2799 37.0406 23.4999 38.3756 23.4999 40.5006C23.4999 40.8984 23.658 41.28 23.9393 41.5613C24.2206 41.8426 24.6021 42.0006 24.9999 42.0006H31.9999V39.0006H27.6999C28.0099 38.7466 28.3449 38.5006 28.6549 38.2636C30.2199 37.0856 31.9999 35.7506 31.9999 33.6256Z" fill="#0D0D0D"/>
<path d="M37.9999 30V35H37.2499C36.9185 34.9995 36.6009 34.8676 36.3666 34.6333C36.1323 34.399 36.0004 34.0814 35.9999 33.75V30H32.9999V33.75C33.0012 34.8768 33.4494 35.957 34.2461 36.7537C35.0429 37.5505 36.1231 37.9987 37.2499 38H37.9999V42H40.9999V30H37.9999Z" fill="#0D0D0D"/>
<path d="M37.4711 21.5297C35.3934 19.4398 32.6181 18.1892 29.6762 18.0172C26.7342 17.8451 23.8321 18.7636 21.5249 20.597C19.2176 22.4304 17.6673 25.05 17.1703 27.9548C16.6733 30.8595 17.2646 33.8455 18.8311 36.3417L21.0231 34.1487C20.3062 32.7782 19.9553 31.2458 20.0044 29.6999C20.0534 28.154 20.5007 26.647 21.3029 25.3246C22.1052 24.0023 23.2353 22.9095 24.5838 22.152C25.9322 21.3944 27.4534 20.9979 29.0001 21.0007C31.3843 21.009 33.6683 21.9607 35.3531 23.6477L33.0001 26.0007H38.9091C39.0524 26.0008 39.1943 25.9727 39.3268 25.9179C39.4592 25.8631 39.5795 25.7828 39.6809 25.6814C39.7822 25.5801 39.8626 25.4598 39.9173 25.3274C39.9721 25.1949 40.0002 25.053 40.0001 24.9097V19.0007L37.4711 21.5297Z" fill="#0D0D0D"/>
</g>
<defs>
<clipPath id="clip0_4_106">
<rect width="24" height="24" fill="white" transform="translate(17 18)"/>
</clipPath>
</defs>
</svg>
