<svg width="306" height="203" viewBox="0 0 306 203" fill="none" xmlns="http://www.w3.org/2000/svg">
<path d="M123.365 105.301L121.971 109.257H121.855C121.622 108.365 121.196 107.008 120.499 105.379L113.023 86.5672H105.701V116.549H110.544V98.048C110.544 96.8844 110.544 95.5656 110.505 93.9366C110.466 93.1221 110.389 92.5015 110.35 92.0361H110.466C110.698 93.1997 110.97 94.053 111.163 94.596L120.15 116.471H123.559L132.468 94.4021C132.662 93.8978 132.856 92.8894 133.049 92.0361H133.166C133.049 94.2469 132.972 96.225 132.933 97.4274V116.433H138.085V86.4896H131.035L123.365 105.301ZM142.966 94.9451H148.002V116.433H142.966V94.9451ZM145.522 85.869C144.67 85.869 143.973 86.1793 143.392 86.7223C142.811 87.2654 142.501 87.9635 142.501 88.8168C142.501 89.6313 142.811 90.3295 143.392 90.8725C143.973 91.4155 144.67 91.687 145.522 91.687C146.375 91.687 147.111 91.3767 147.653 90.8725C148.234 90.3295 148.544 89.6313 148.544 88.8168C148.544 88.0023 148.234 87.3041 147.653 86.7223C147.149 86.1793 146.413 85.869 145.522 85.869ZM165.859 94.7511C164.929 94.5572 163.961 94.4408 163.031 94.4408C160.746 94.4408 158.654 94.9451 156.911 95.9535C155.168 96.962 153.773 98.3583 152.882 100.104C151.953 101.888 151.488 103.943 151.488 106.309C151.488 108.365 151.953 110.188 152.844 111.856C153.735 113.485 154.974 114.804 156.64 115.696C158.228 116.588 160.087 117.053 162.179 117.053C164.581 117.053 166.634 116.549 168.261 115.618L168.299 115.579V110.925L168.106 111.08C167.37 111.623 166.518 112.089 165.665 112.36C164.774 112.67 163.961 112.826 163.264 112.826C161.249 112.826 159.661 112.244 158.538 110.964C157.376 109.723 156.795 108.016 156.795 105.883C156.795 103.672 157.376 101.927 158.577 100.647C159.777 99.3667 161.366 98.7073 163.302 98.7073C164.929 98.7073 166.595 99.2503 168.106 100.336L168.299 100.492V95.5656L168.261 95.5269C167.602 95.2554 166.866 94.9451 165.859 94.7511ZM182.477 94.596C181.237 94.596 180.075 94.9838 179.068 95.7984C178.216 96.4965 177.635 97.505 177.131 98.7073H177.093V94.9451H172.057V116.433H177.093V105.456C177.093 103.594 177.48 102.043 178.332 100.918C179.184 99.7546 180.269 99.1728 181.586 99.1728C182.051 99.1728 182.516 99.2891 183.097 99.3667C183.639 99.5219 184.026 99.677 184.298 99.8709L184.491 100.026V94.9838L184.375 94.9451C184.026 94.7123 183.329 94.596 182.477 94.596ZM196.19 94.4796C192.665 94.4796 189.837 95.5269 187.861 97.5825C185.847 99.6382 184.879 102.47 184.879 106.038C184.879 109.374 185.886 112.089 187.823 114.067C189.759 116.006 192.394 117.015 195.686 117.015C199.134 117.015 201.884 115.967 203.859 113.873C205.874 111.778 206.842 108.986 206.842 105.534C206.842 102.121 205.913 99.4055 204.014 97.4274C202.194 95.4493 199.521 94.4796 196.19 94.4796ZM200.218 111.003C199.289 112.205 197.817 112.787 195.996 112.787C194.175 112.787 192.703 112.205 191.658 110.925C190.612 109.723 190.108 107.977 190.108 105.766C190.108 103.478 190.65 101.733 191.658 100.492C192.703 99.2503 194.137 98.6298 195.957 98.6298C197.739 98.6298 199.134 99.2116 200.141 100.414C201.148 101.616 201.69 103.362 201.69 105.65C201.613 107.977 201.187 109.8 200.218 111.003ZM218.076 103.866C216.488 103.207 215.48 102.702 215.016 102.276C214.628 101.888 214.435 101.345 214.435 100.647C214.435 100.065 214.667 99.4831 215.248 99.0952C215.829 98.7073 216.488 98.5134 217.456 98.5134C218.308 98.5134 219.199 98.6686 220.051 98.9013C220.903 99.134 221.678 99.4831 222.298 99.9485L222.492 100.104V95.3717L222.375 95.3329C221.794 95.1002 221.02 94.8675 220.09 94.6736C219.16 94.5184 218.308 94.4408 217.611 94.4408C215.209 94.4408 213.234 95.0226 211.684 96.3026C210.135 97.505 209.399 99.134 209.399 101.035C209.399 102.043 209.554 102.935 209.902 103.672C210.251 104.409 210.755 105.107 211.452 105.689C212.149 106.232 213.156 106.852 214.551 107.434C215.713 107.938 216.604 108.326 217.146 108.637C217.688 108.947 218.037 109.296 218.308 109.568C218.502 109.878 218.618 110.266 218.618 110.77C218.618 112.205 217.533 112.903 215.325 112.903C214.473 112.903 213.582 112.748 212.536 112.399C211.491 112.05 210.522 111.546 209.709 110.964L209.515 110.809V115.735L209.631 115.773C210.367 116.122 211.258 116.355 212.343 116.627C213.427 116.821 214.396 116.976 215.248 116.976C217.843 116.976 219.974 116.394 221.485 115.114C223.034 113.873 223.847 112.283 223.847 110.227C223.847 108.792 223.46 107.512 222.608 106.542C221.485 105.611 220.09 104.642 218.076 103.866ZM237.134 94.4796C233.609 94.4796 230.781 95.5269 228.806 97.5825C226.83 99.6382 225.823 102.47 225.823 106.038C225.823 109.374 226.83 112.089 228.767 114.067C230.704 116.006 233.338 117.015 236.63 117.015C240.078 117.015 242.828 115.967 244.804 113.873C246.818 111.778 247.787 108.986 247.787 105.534C247.787 102.121 246.857 99.4055 244.959 97.4274C243.138 95.4493 240.465 94.4796 237.134 94.4796ZM241.124 111.003C240.194 112.205 238.722 112.787 236.902 112.787C235.042 112.787 233.609 112.205 232.563 110.925C231.517 109.723 231.014 107.977 231.014 105.766C231.014 103.478 231.556 101.733 232.563 100.492C233.609 99.2503 235.042 98.6298 236.863 98.6298C238.606 98.6298 240.039 99.2116 241.046 100.414C242.054 101.616 242.596 103.362 242.596 105.65C242.596 107.977 242.092 109.8 241.124 111.003ZM274.708 99.0952V94.9451H269.634V88.5841L269.479 88.6229L264.676 90.058L264.559 90.0968V94.9451H256.967V92.23C256.967 90.9889 257.277 90.0192 257.819 89.3986C258.362 88.778 259.175 88.4677 260.182 88.4677C260.879 88.4677 261.615 88.6229 262.429 88.972L262.623 89.0883V84.7055L262.506 84.6667C261.809 84.434 260.879 84.2788 259.679 84.2788C258.168 84.2788 256.851 84.6279 255.65 85.2097C254.449 85.869 253.558 86.7611 252.9 87.9635C252.241 89.1271 251.893 90.4458 251.893 91.9585V94.9451H248.368V99.0564H251.893V116.433H256.967V99.0952H264.559V110.149C264.559 114.687 266.69 116.976 270.951 116.976C271.648 116.976 272.384 116.859 273.081 116.743C273.817 116.588 274.36 116.394 274.67 116.239L274.708 116.2V112.05L274.515 112.205C274.205 112.399 273.934 112.554 273.469 112.67C273.081 112.787 272.733 112.826 272.462 112.826C271.454 112.826 270.757 112.593 270.254 112.011C269.789 111.468 269.556 110.576 269.556 109.257V99.0952H274.708Z" fill="white"/>
<path d="M40.7798 76.4828H64.5252V100.259H40.7798V76.4828Z" fill="#F25022"/>
<path d="M67.0043 76.4828H90.7497V100.259H67.0043V76.4828Z" fill="#7FBA00"/>
<path d="M40.7798 102.741H64.5252V126.517H40.7798V102.741Z" fill="#00A4EF"/>
<path d="M67.0043 102.741H90.7497V126.517H67.0043V102.741Z" fill="#FFB900"/>
</svg>
